<svg id="visual" viewBox="0 0 900 675" width="900" height="675" xmlns="http://www.w3.org/2000/svg" xmlns:xlink="http://www.w3.org/1999/xlink" version="1.1"><g transform="translate(470.79072487145595 372.53344555932824)"><path d="M165.3 -229.4C199.9 -168 203.8 -102.3 232.1 -28.2C260.3 45.9 312.8 128.4 297.3 187C281.8 245.6 198.2 280.2 122.9 284.5C47.7 288.8 -19.3 262.8 -87.4 238.7C-155.6 214.5 -225 192.3 -273.7 141.7C-322.4 91.1 -350.3 12.2 -339.3 -61.6C-328.4 -135.4 -278.6 -204 -215.6 -260.4C-152.6 -316.8 -76.3 -360.9 -5.5 -354.4C65.4 -347.9 130.7 -290.8 165.3 -229.4" fill="#2563eb"></path></g></svg>