<svg id="visual" viewBox="0 0 900 600" width="900" height="600" xmlns="http://www.w3.org/2000/svg" xmlns:xlink="http://www.w3.org/1999/xlink" version="1.1"><g transform="translate(421.6382628597509 301.80743970652264)"><path d="M157.8 -182.1C218.4 -137.3 290.9 -100.7 320.1 -40.8C349.4 19.1 335.3 102.3 285.5 142.4C235.6 182.4 149.9 179.3 74.9 207.1C0 234.9 -64.1 293.7 -121.1 291C-178.2 288.4 -228.1 224.5 -254.5 157.3C-280.9 90.2 -283.7 19.8 -271.8 -47.9C-259.8 -115.7 -233.1 -180.8 -185.3 -227.9C-137.6 -274.9 -68.8 -304 -10.1 -292C48.6 -280 97.3 -226.9 157.8 -182.1" fill="#2563eb"></path></g></svg>