<svg id="visual" viewBox="0 0 900 450" width="900" height="450" xmlns="http://www.w3.org/2000/svg" xmlns:xlink="http://www.w3.org/1999/xlink" version="1.1"><path d="M0 184L18.8 188.7C37.7 193.3 75.3 202.7 112.8 207.3C150.3 212 187.7 212 225.2 208.3C262.7 204.7 300.3 197.3 337.8 194C375.3 190.7 412.7 191.3 450.2 196.3C487.7 201.3 525.3 210.7 562.8 221.8C600.3 233 637.7 246 675.2 242.7C712.7 239.3 750.3 219.7 787.8 220.2C825.3 220.7 862.7 241.3 881.3 251.7L900 262L900 451L881.3 451C862.7 451 825.3 451 787.8 451C750.3 451 712.7 451 675.2 451C637.7 451 600.3 451 562.8 451C525.3 451 487.7 451 450.2 451C412.7 451 375.3 451 337.8 451C300.3 451 262.7 451 225.2 451C187.7 451 150.3 451 112.8 451C75.3 451 37.7 451 18.8 451L0 451Z" fill="#0066FF" stroke-linecap="round" stroke-linejoin="miter"></path></svg>