<svg id="visual" viewBox="0 0 900 400" width="900" height="400" xmlns="http://www.w3.org/2000/svg" xmlns:xlink="http://www.w3.org/1999/xlink" version="1.1"><path d="M0 203L18.8 198.5C37.7 194 75.3 185 112.8 190.7C150.3 196.3 187.7 216.7 225.2 219.7C262.7 222.7 300.3 208.3 337.8 206.5C375.3 204.7 412.7 215.3 450.2 217.3C487.7 219.3 525.3 212.7 562.8 203C600.3 193.3 637.7 180.7 675.2 178.8C712.7 177 750.3 186 787.8 188.8C825.3 191.7 862.7 188.3 881.3 186.7L900 185L900 401L881.3 401C862.7 401 825.3 401 787.8 401C750.3 401 712.7 401 675.2 401C637.7 401 600.3 401 562.8 401C525.3 401 487.7 401 450.2 401C412.7 401 375.3 401 337.8 401C300.3 401 262.7 401 225.2 401C187.7 401 150.3 401 112.8 401C75.3 401 37.7 401 18.8 401L0 401Z" fill="#0066FF" stroke-linecap="round" stroke-linejoin="miter"></path></svg>