<svg id="visual" viewBox="0 0 900 180" width="900" height="180" xmlns="http://www.w3.org/2000/svg" xmlns:xlink="http://www.w3.org/1999/xlink" version="1.1"><path d="M0 90L18.8 90.2C37.7 90.3 75.3 90.7 112.8 89.5C150.3 88.3 187.7 85.7 225.2 82C262.7 78.3 300.3 73.7 337.8 70.5C375.3 67.3 412.7 65.7 450.2 66.7C487.7 67.7 525.3 71.3 562.8 77.7C600.3 84 637.7 93 675.2 91.2C712.7 89.3 750.3 76.7 787.8 75C825.3 73.3 862.7 82.7 881.3 87.3L900 92L900 181L881.3 181C862.7 181 825.3 181 787.8 181C750.3 181 712.7 181 675.2 181C637.7 181 600.3 181 562.8 181C525.3 181 487.7 181 450.2 181C412.7 181 375.3 181 337.8 181C300.3 181 262.7 181 225.2 181C187.7 181 150.3 181 112.8 181C75.3 181 37.7 181 18.8 181L0 181Z" fill="#0066FF" stroke-linecap="round" stroke-linejoin="miter"></path></svg>