<svg id="visual" viewBox="0 0 900 200" width="900" height="200" xmlns="http://www.w3.org/2000/svg" xmlns:xlink="http://www.w3.org/1999/xlink" version="1.1"><path d="M0 99L18.8 101C37.7 103 75.3 107 112.8 108.8C150.3 110.7 187.7 110.3 225.2 105.2C262.7 100 300.3 90 337.8 85.5C375.3 81 412.7 82 450.2 87C487.7 92 525.3 101 562.8 102.7C600.3 104.3 637.7 98.7 675.2 93.7C712.7 88.7 750.3 84.3 787.8 87.2C825.3 90 862.7 100 881.3 105L900 110L900 201L881.3 201C862.7 201 825.3 201 787.8 201C750.3 201 712.7 201 675.2 201C637.7 201 600.3 201 562.8 201C525.3 201 487.7 201 450.2 201C412.7 201 375.3 201 337.8 201C300.3 201 262.7 201 225.2 201C187.7 201 150.3 201 112.8 201C75.3 201 37.7 201 18.8 201L0 201Z" fill="#0066FF" stroke-linecap="round" stroke-linejoin="miter"></path></svg>