<svg id="visual" viewBox="0 0 900 250" width="900" height="250" xmlns="http://www.w3.org/2000/svg" xmlns:xlink="http://www.w3.org/1999/xlink" version="1.1"><path d="M0 168L15 166.8C30 165.7 60 163.3 90 159.2C120 155 150 149 180 135.8C210 122.7 240 102.3 270 93.2C300 84 330 86 360 95.5C390 105 420 122 450 136C480 150 510 161 540 150.3C570 139.7 600 107.3 630 105.3C660 103.3 690 131.7 720 136.5C750 141.3 780 122.7 810 120C840 117.3 870 130.7 885 137.3L900 144L900 251L885 251C870 251 840 251 810 251C780 251 750 251 720 251C690 251 660 251 630 251C600 251 570 251 540 251C510 251 480 251 450 251C420 251 390 251 360 251C330 251 300 251 270 251C240 251 210 251 180 251C150 251 120 251 90 251C60 251 30 251 15 251L0 251Z" fill="#2563eb" stroke-linecap="round" stroke-linejoin="miter"></path></svg>