<svg id="visual" viewBox="0 0 900 600" width="900" height="600" xmlns="http://www.w3.org/2000/svg" xmlns:xlink="http://www.w3.org/1999/xlink" version="1.1"><path d="M0 350L21.5 358.8C43 367.7 86 385.3 128.8 398.7C171.7 412 214.3 421 257.2 420.8C300 420.7 343 411.3 385.8 398.7C428.7 386 471.3 370 514.2 365.8C557 361.7 600 369.3 642.8 380.3C685.7 391.3 728.3 405.7 771.2 408.8C814 412 857 404 878.5 400L900 396L900 601L878.5 601C857 601 814 601 771.2 601C728.3 601 685.7 601 642.8 601C600 601 557 601 514.2 601C471.3 601 428.7 601 385.8 601C343 601 300 601 257.2 601C214.3 601 171.7 601 128.8 601C86 601 43 601 21.5 601L0 601Z" fill="#2563eb"></path><path d="M0 401L21.5 401.8C43 402.7 86 404.3 128.8 412.7C171.7 421 214.3 436 257.2 448.2C300 460.3 343 469.7 385.8 468.2C428.7 466.7 471.3 454.3 514.2 445.3C557 436.3 600 430.7 642.8 430C685.7 429.3 728.3 433.7 771.2 429.5C814 425.3 857 412.7 878.5 406.3L900 400L900 601L878.5 601C857 601 814 601 771.2 601C728.3 601 685.7 601 642.8 601C600 601 557 601 514.2 601C471.3 601 428.7 601 385.8 601C343 601 300 601 257.2 601C214.3 601 171.7 601 128.8 601C86 601 43 601 21.5 601L0 601Z" fill="#245adc"></path><path d="M0 454L21.5 455C43 456 86 458 128.8 460C171.7 462 214.3 464 257.2 463.3C300 462.7 343 459.3 385.8 463.3C428.7 467.3 471.3 478.7 514.2 478.2C557 477.7 600 465.3 642.8 462.2C685.7 459 728.3 465 771.2 471.8C814 478.7 857 486.3 878.5 490.2L900 494L900 601L878.5 601C857 601 814 601 771.2 601C728.3 601 685.7 601 642.8 601C600 601 557 601 514.2 601C471.3 601 428.7 601 385.8 601C343 601 300 601 257.2 601C214.3 601 171.7 601 128.8 601C86 601 43 601 21.5 601L0 601Z" fill="#2351cd"></path><path d="M0 512L21.5 512.8C43 513.7 86 515.3 128.8 517.7C171.7 520 214.3 523 257.2 518.7C300 514.3 343 502.7 385.8 500.2C428.7 497.7 471.3 504.3 514.2 508.7C557 513 600 515 642.8 514.8C685.7 514.7 728.3 512.3 771.2 513.8C814 515.3 857 520.7 878.5 523.3L900 526L900 601L878.5 601C857 601 814 601 771.2 601C728.3 601 685.7 601 642.8 601C600 601 557 601 514.2 601C471.3 601 428.7 601 385.8 601C343 601 300 601 257.2 601C214.3 601 171.7 601 128.8 601C86 601 43 601 21.5 601L0 601Z" fill="#2148be"></path><path d="M0 562L21.5 561.3C43 560.7 86 559.3 128.8 558.7C171.7 558 214.3 558 257.2 557.2C300 556.3 343 554.7 385.8 555C428.7 555.3 471.3 557.7 514.2 558.8C557 560 600 560 642.8 557.2C685.7 554.3 728.3 548.7 771.2 545.3C814 542 857 541 878.5 540.5L900 540L900 601L878.5 601C857 601 814 601 771.2 601C728.3 601 685.7 601 642.8 601C600 601 557 601 514.2 601C471.3 601 428.7 601 385.8 601C343 601 300 601 257.2 601C214.3 601 171.7 601 128.8 601C86 601 43 601 21.5 601L0 601Z" fill="#1e40af"></path></svg>