<svg id="visual" viewBox="0 0 900 600" width="900" height="600" xmlns="http://www.w3.org/2000/svg" xmlns:xlink="http://www.w3.org/1999/xlink" version="1.1"><path d="M0 342L18.8 337.8C37.7 333.7 75.3 325.3 112.8 332.5C150.3 339.7 187.7 362.3 225.2 378.3C262.7 394.3 300.3 403.7 337.8 396.7C375.3 389.7 412.7 366.3 450.2 364.7C487.7 363 525.3 383 562.8 394.5C600.3 406 637.7 409 675.2 403.2C712.7 397.3 750.3 382.7 787.8 368.5C825.3 354.3 862.7 340.7 881.3 333.8L900 327L900 601L881.3 601C862.7 601 825.3 601 787.8 601C750.3 601 712.7 601 675.2 601C637.7 601 600.3 601 562.8 601C525.3 601 487.7 601 450.2 601C412.7 601 375.3 601 337.8 601C300.3 601 262.7 601 225.2 601C187.7 601 150.3 601 112.8 601C75.3 601 37.7 601 18.8 601L0 601Z" fill="#2563eb"></path><path d="M0 359L18.8 361.8C37.7 364.7 75.3 370.3 112.8 383.3C150.3 396.3 187.7 416.7 225.2 423.8C262.7 431 300.3 425 337.8 424C375.3 423 412.7 427 450.2 427.5C487.7 428 525.3 425 562.8 428.5C600.3 432 637.7 442 675.2 444.5C712.7 447 750.3 442 787.8 430.8C825.3 419.7 862.7 402.3 881.3 393.7L900 385L900 601L881.3 601C862.7 601 825.3 601 787.8 601C750.3 601 712.7 601 675.2 601C637.7 601 600.3 601 562.8 601C525.3 601 487.7 601 450.2 601C412.7 601 375.3 601 337.8 601C300.3 601 262.7 601 225.2 601C187.7 601 150.3 601 112.8 601C75.3 601 37.7 601 18.8 601L0 601Z" fill="#245adc"></path><path d="M0 424L18.8 432.7C37.7 441.3 75.3 458.7 112.8 456.3C150.3 454 187.7 432 225.2 431.5C262.7 431 300.3 452 337.8 460.7C375.3 469.3 412.7 465.7 450.2 462.8C487.7 460 525.3 458 562.8 462.5C600.3 467 637.7 478 675.2 484.2C712.7 490.3 750.3 491.7 787.8 485.2C825.3 478.7 862.7 464.3 881.3 457.2L900 450L900 601L881.3 601C862.7 601 825.3 601 787.8 601C750.3 601 712.7 601 675.2 601C637.7 601 600.3 601 562.8 601C525.3 601 487.7 601 450.2 601C412.7 601 375.3 601 337.8 601C300.3 601 262.7 601 225.2 601C187.7 601 150.3 601 112.8 601C75.3 601 37.7 601 18.8 601L0 601Z" fill="#2351cd"></path><path d="M0 504L18.8 500.7C37.7 497.3 75.3 490.7 112.8 488.3C150.3 486 187.7 488 225.2 493.8C262.7 499.7 300.3 509.3 337.8 505.7C375.3 502 412.7 485 450.2 481.3C487.7 477.7 525.3 487.3 562.8 496.3C600.3 505.3 637.7 513.7 675.2 517.8C712.7 522 750.3 522 787.8 518C825.3 514 862.7 506 881.3 502L900 498L900 601L881.3 601C862.7 601 825.3 601 787.8 601C750.3 601 712.7 601 675.2 601C637.7 601 600.3 601 562.8 601C525.3 601 487.7 601 450.2 601C412.7 601 375.3 601 337.8 601C300.3 601 262.7 601 225.2 601C187.7 601 150.3 601 112.8 601C75.3 601 37.7 601 18.8 601L0 601Z" fill="#2148be"></path><path d="M0 522L18.8 525.8C37.7 529.7 75.3 537.3 112.8 540.2C150.3 543 187.7 541 225.2 541C262.7 541 300.3 543 337.8 543.8C375.3 544.7 412.7 544.3 450.2 538.8C487.7 533.3 525.3 522.7 562.8 523.5C600.3 524.3 637.7 536.7 675.2 537.3C712.7 538 750.3 527 787.8 528.5C825.3 530 862.7 544 881.3 551L900 558L900 601L881.3 601C862.7 601 825.3 601 787.8 601C750.3 601 712.7 601 675.2 601C637.7 601 600.3 601 562.8 601C525.3 601 487.7 601 450.2 601C412.7 601 375.3 601 337.8 601C300.3 601 262.7 601 225.2 601C187.7 601 150.3 601 112.8 601C75.3 601 37.7 601 18.8 601L0 601Z" fill="#1e40af"></path></svg>