<svg id="visual" viewBox="0 0 900 250" width="900" height="250" xmlns="http://www.w3.org/2000/svg" xmlns:xlink="http://www.w3.org/1999/xlink" version="1.1"><path d="M0 131L25 126.5C50 122 100 113 150 106.2C200 99.3 250 94.7 300 99.5C350 104.3 400 118.7 450 124.7C500 130.7 550 128.3 600 126C650 123.7 700 121.3 750 117C800 112.7 850 106.3 875 103.2L900 100L900 251L875 251C850 251 800 251 750 251C700 251 650 251 600 251C550 251 500 251 450 251C400 251 350 251 300 251C250 251 200 251 150 251C100 251 50 251 25 251L0 251Z" fill="#2563eb" stroke-linecap="round" stroke-linejoin="miter"></path></svg>