<svg id="visual" viewBox="0 0 900 600" width="900" height="600" xmlns="http://www.w3.org/2000/svg" xmlns:xlink="http://www.w3.org/1999/xlink" version="1.1"><path d="M0 375L18.8 373.7C37.7 372.3 75.3 369.7 112.8 359.8C150.3 350 187.7 333 225.2 324.7C262.7 316.3 300.3 316.7 337.8 324.7C375.3 332.7 412.7 348.3 450.2 361.5C487.7 374.7 525.3 385.3 562.8 389.5C600.3 393.7 637.7 391.3 675.2 386.7C712.7 382 750.3 375 787.8 365.8C825.3 356.7 862.7 345.3 881.3 339.7L900 334L900 601L881.3 601C862.7 601 825.3 601 787.8 601C750.3 601 712.7 601 675.2 601C637.7 601 600.3 601 562.8 601C525.3 601 487.7 601 450.2 601C412.7 601 375.3 601 337.8 601C300.3 601 262.7 601 225.2 601C187.7 601 150.3 601 112.8 601C75.3 601 37.7 601 18.8 601L0 601Z" fill="#2563eb"></path><path d="M0 405L18.8 407.2C37.7 409.3 75.3 413.7 112.8 417C150.3 420.3 187.7 422.7 225.2 426.2C262.7 429.7 300.3 434.3 337.8 434.2C375.3 434 412.7 429 450.2 420.2C487.7 411.3 525.3 398.7 562.8 401.2C600.3 403.7 637.7 421.3 675.2 424.2C712.7 427 750.3 415 787.8 413C825.3 411 862.7 419 881.3 423L900 427L900 601L881.3 601C862.7 601 825.3 601 787.8 601C750.3 601 712.7 601 675.2 601C637.7 601 600.3 601 562.8 601C525.3 601 487.7 601 450.2 601C412.7 601 375.3 601 337.8 601C300.3 601 262.7 601 225.2 601C187.7 601 150.3 601 112.8 601C75.3 601 37.7 601 18.8 601L0 601Z" fill="#245adc"></path><path d="M0 431L18.8 430.8C37.7 430.7 75.3 430.3 112.8 431.5C150.3 432.7 187.7 435.3 225.2 433.3C262.7 431.3 300.3 424.7 337.8 421.7C375.3 418.7 412.7 419.3 450.2 419.3C487.7 419.3 525.3 418.7 562.8 420.7C600.3 422.7 637.7 427.3 675.2 426.7C712.7 426 750.3 420 787.8 416.7C825.3 413.3 862.7 412.7 881.3 412.3L900 412L900 601L881.3 601C862.7 601 825.3 601 787.8 601C750.3 601 712.7 601 675.2 601C637.7 601 600.3 601 562.8 601C525.3 601 487.7 601 450.2 601C412.7 601 375.3 601 337.8 601C300.3 601 262.7 601 225.2 601C187.7 601 150.3 601 112.8 601C75.3 601 37.7 601 18.8 601L0 601Z" fill="#2351cd"></path><path d="M0 496L18.8 494.2C37.7 492.3 75.3 488.7 112.8 494.3C150.3 500 187.7 515 225.2 515.2C262.7 515.3 300.3 500.7 337.8 496.5C375.3 492.3 412.7 498.7 450.2 505.2C487.7 511.7 525.3 518.3 562.8 519.8C600.3 521.3 637.7 517.7 675.2 518C712.7 518.3 750.3 522.7 787.8 515.5C825.3 508.3 862.7 489.7 881.3 480.3L900 471L900 601L881.3 601C862.7 601 825.3 601 787.8 601C750.3 601 712.7 601 675.2 601C637.7 601 600.3 601 562.8 601C525.3 601 487.7 601 450.2 601C412.7 601 375.3 601 337.8 601C300.3 601 262.7 601 225.2 601C187.7 601 150.3 601 112.8 601C75.3 601 37.7 601 18.8 601L0 601Z" fill="#2148be"></path><path d="M0 539L18.8 537.7C37.7 536.3 75.3 533.7 112.8 537C150.3 540.3 187.7 549.7 225.2 552.2C262.7 554.7 300.3 550.3 337.8 542.7C375.3 535 412.7 524 450.2 525.8C487.7 527.7 525.3 542.3 562.8 551.5C600.3 560.7 637.7 564.3 675.2 558.2C712.7 552 750.3 536 787.8 530.2C825.3 524.3 862.7 528.7 881.3 530.8L900 533L900 601L881.3 601C862.7 601 825.3 601 787.8 601C750.3 601 712.7 601 675.2 601C637.7 601 600.3 601 562.8 601C525.3 601 487.7 601 450.2 601C412.7 601 375.3 601 337.8 601C300.3 601 262.7 601 225.2 601C187.7 601 150.3 601 112.8 601C75.3 601 37.7 601 18.8 601L0 601Z" fill="#1e40af"></path></svg>