<svg id="visual" viewBox="0 0 900 600" width="900" height="600" xmlns="http://www.w3.org/2000/svg" xmlns:xlink="http://www.w3.org/1999/xlink" version="1.1"><rect x="0" y="0" width="900" height="600" fill="#ffffff"></rect><path d="M0 123L13.7 119C27.3 115 54.7 107 82 108.7C109.3 110.3 136.7 121.7 163.8 124.3C191 127 218 121 245.2 114.7C272.3 108.3 299.7 101.7 327 106C354.3 110.3 381.7 125.7 409 126.3C436.3 127 463.7 113 491 112.2C518.3 111.3 545.7 123.7 573 128.2C600.3 132.7 627.7 129.3 654.8 124.2C682 119 709 112 736.2 107.8C763.3 103.7 790.7 102.3 818 106.8C845.3 111.3 872.7 121.7 886.3 126.8L900 132L900 0L886.3 0C872.7 0 845.3 0 818 0C790.7 0 763.3 0 736.2 0C709 0 682 0 654.8 0C627.7 0 600.3 0 573 0C545.7 0 518.3 0 491 0C463.7 0 436.3 0 409 0C381.7 0 354.3 0 327 0C299.7 0 272.3 0 245.2 0C218 0 191 0 163.8 0C136.7 0 109.3 0 82 0C54.7 0 27.3 0 13.7 0L0 0Z" fill="#2563eb" stroke-linecap="round" stroke-linejoin="miter"></path></svg>