<svg id="visual" viewBox="0 0 900 100" width="900" height="100" xmlns="http://www.w3.org/2000/svg" xmlns:xlink="http://www.w3.org/1999/xlink" version="1.1"><path d="M0 32L16.7 37.2C33.3 42.3 66.7 52.7 100 58.8C133.3 65 166.7 67 200 60.3C233.3 53.7 266.7 38.3 300 38.3C333.3 38.3 366.7 53.7 400 54.5C433.3 55.3 466.7 41.7 500 38.5C533.3 35.3 566.7 42.7 600 44.3C633.3 46 666.7 42 700 38.5C733.3 35 766.7 32 800 35.3C833.3 38.7 866.7 48.3 883.3 53.2L900 58L900 0L883.3 0C866.7 0 833.3 0 800 0C766.7 0 733.3 0 700 0C666.7 0 633.3 0 600 0C566.7 0 533.3 0 500 0C466.7 0 433.3 0 400 0C366.7 0 333.3 0 300 0C266.7 0 233.3 0 200 0C166.7 0 133.3 0 100 0C66.7 0 33.3 0 16.7 0L0 0Z" fill="#2563eb" stroke-linecap="round" stroke-linejoin="miter"></path></svg>