<svg id="visual" viewBox="0 0 900 100" width="900" height="100" xmlns="http://www.w3.org/2000/svg" xmlns:xlink="http://www.w3.org/1999/xlink" version="1.1"><path d="M0 58L13.7 55.5C27.3 53 54.7 48 82 48.2C109.3 48.3 136.7 53.7 163.8 56.8C191 60 218 61 245.2 62.2C272.3 63.3 299.7 64.7 327 62C354.3 59.3 381.7 52.7 409 49.2C436.3 45.7 463.7 45.3 491 49.7C518.3 54 545.7 63 573 62.5C600.3 62 627.7 52 654.8 47.7C682 43.3 709 44.7 736.2 48.8C763.3 53 790.7 60 818 61.3C845.3 62.7 872.7 58.3 886.3 56.2L900 54L900 0L886.3 0C872.7 0 845.3 0 818 0C790.7 0 763.3 0 736.2 0C709 0 682 0 654.8 0C627.7 0 600.3 0 573 0C545.7 0 518.3 0 491 0C463.7 0 436.3 0 409 0C381.7 0 354.3 0 327 0C299.7 0 272.3 0 245.2 0C218 0 191 0 163.8 0C136.7 0 109.3 0 82 0C54.7 0 27.3 0 13.7 0L0 0Z" fill="#2563eb" stroke-linecap="round" stroke-linejoin="miter"></path></svg>