<svg id="visual" viewBox="0 0 900 600" width="900" height="600" xmlns="http://www.w3.org/2000/svg" xmlns:xlink="http://www.w3.org/1999/xlink" version="1.1"><path d="M262 0L308 86L321 171L298 257L443 343L530 429L508 514L473 600L0 600L0 514L0 429L0 343L0 257L0 171L0 86L0 0Z" fill="#2563eb"></path><path d="M246 0L254 86L260 171L196 257L378 343L369 429L342 514L430 600L0 600L0 514L0 429L0 343L0 257L0 171L0 86L0 0Z" fill="#7787f1"></path><path d="M147 0L204 86L171 171L316 257L264 343L208 429L276 514L299 600L0 600L0 514L0 429L0 343L0 257L0 171L0 86L0 0Z" fill="#aaadf7"></path><path d="M229 0L203 86L243 171L259 257L114 343L184 429L262 514L201 600L0 600L0 514L0 429L0 343L0 257L0 171L0 86L0 0Z" fill="#d6d5fb"></path><path d="M116 0L160 86L43 171L35 257L42 343L113 429L84 514L81 600L0 600L0 514L0 429L0 343L0 257L0 171L0 86L0 0Z" fill="#ffffff"></path></svg>