<svg id="visual" viewBox="0 0 900 600" width="900" height="600" xmlns="http://www.w3.org/2000/svg" xmlns:xlink="http://www.w3.org/1999/xlink" version="1.1"><path d="M320 0L257 86L362 171L201 257L210 343L289 429L346 514L393 600L0 600L0 514L0 429L0 343L0 257L0 171L0 86L0 0Z" fill="#ffffff"></path><path d="M223 0L259 86L205 171L309 257L251 343L298 429L166 514L234 600L0 600L0 514L0 429L0 343L0 257L0 171L0 86L0 0Z" fill="#d6d5fb"></path><path d="M197 0L100 86L199 171L111 257L207 343L233 429L118 514L209 600L0 600L0 514L0 429L0 343L0 257L0 171L0 86L0 0Z" fill="#aaadf7"></path><path d="M183 0L153 86L167 171L167 257L110 343L93 429L98 514L101 600L0 600L0 514L0 429L0 343L0 257L0 171L0 86L0 0Z" fill="#7787f1"></path><path d="M127 0L50 86L96 171L73 257L56 343L71 429L40 514L123 600L0 600L0 514L0 429L0 343L0 257L0 171L0 86L0 0Z" fill="#2563eb"></path></svg>