<svg id="visual" viewBox="0 0 900 600" width="900" height="600" xmlns="http://www.w3.org/2000/svg" xmlns:xlink="http://www.w3.org/1999/xlink" version="1.1"><path d="M582 600L645 514L540 429L701 343L692 257L613 171L556 86L509 0L900 0L900 86L900 171L900 257L900 343L900 429L900 514L900 600Z" fill="#2563eb"></path><path d="M679 600L643 514L697 429L593 343L651 257L604 171L736 86L668 0L900 0L900 86L900 171L900 257L900 343L900 429L900 514L900 600Z" fill="#7787f1"></path><path d="M705 600L802 514L703 429L791 343L695 257L669 171L784 86L693 0L900 0L900 86L900 171L900 257L900 343L900 429L900 514L900 600Z" fill="#aaadf7"></path><path d="M719 600L749 514L735 429L735 343L792 257L809 171L804 86L801 0L900 0L900 86L900 171L900 257L900 343L900 429L900 514L900 600Z" fill="#d6d5fb"></path><path d="M775 600L852 514L806 429L829 343L846 257L831 171L862 86L779 0L900 0L900 86L900 171L900 257L900 343L900 429L900 514L900 600Z" fill="#ffffff"></path></svg>