<svg id="visual" viewBox="0 0 450 600" width="450" height="600" xmlns="http://www.w3.org/2000/svg" xmlns:xlink="http://www.w3.org/1999/xlink" version="1.1"><rect x="0" y="0" width="450" height="600" fill="#ffffff"></rect><defs><linearGradient id="grad1_0" x1="0%" y1="0%" x2="100%" y2="100%"><stop offset="30%" stop-color="#ffffff" stop-opacity="1"></stop><stop offset="70%" stop-color="#ffffff" stop-opacity="1"></stop></linearGradient></defs><defs><linearGradient id="grad2_0" x1="0%" y1="0%" x2="100%" y2="100%"><stop offset="30%" stop-color="#ffffff" stop-opacity="1"></stop><stop offset="70%" stop-color="#ffffff" stop-opacity="1"></stop></linearGradient></defs><g transform="translate(450, 0)"><path d="M0 337.5C-46.7 336.2 -93.3 334.9 -129.2 311.8C-165 288.7 -190 243.9 -205.8 205.8C-221.5 167.6 -228.1 136.1 -248.5 102.9C-268.9 69.8 -303.2 34.9 -337.5 0L0 0Z" fill="#101312"></path></g><g transform="translate(0, 600)"><path d="M0 -337.5C51.6 -341.2 103.3 -344.8 129.2 -311.8C155 -278.8 155.1 -209.2 171.1 -171.1C187.1 -133.1 219.1 -126.6 249.4 -103.3C279.8 -80.1 308.7 -40 337.5 0L0 0Z" fill="#101312"></path></g></svg>