<svg id="visual" viewBox="0 0 900 600" width="900" height="600" xmlns="http://www.w3.org/2000/svg" xmlns:xlink="http://www.w3.org/1999/xlink" version="1.1"><path d="M0 519L39 503L78 522L117 494L157 496L196 500L235 497L274 519L313 504L352 493L391 521L430 525L470 505L509 523L548 508L587 515L626 514L665 523L704 522L743 516L783 526L822 526L861 509L900 505L900 601L861 601L822 601L783 601L743 601L704 601L665 601L626 601L587 601L548 601L509 601L470 601L430 601L391 601L352 601L313 601L274 601L235 601L196 601L157 601L117 601L78 601L39 601L0 601Z" fill="#101312"></path><path d="M0 520L39 514L78 503L117 506L157 514L196 502L235 518L274 517L313 528L352 512L391 510L430 517L470 510L509 529L548 527L587 501L626 516L665 502L704 525L743 500L783 526L822 518L861 532L900 522L900 601L861 601L822 601L783 601L743 601L704 601L665 601L626 601L587 601L548 601L509 601L470 601L430 601L391 601L352 601L313 601L274 601L235 601L196 601L157 601L117 601L78 601L39 601L0 601Z" fill="#101312"></path><path d="M0 511L39 517L78 514L117 533L157 508L196 523L235 519L274 508L313 537L352 530L391 518L430 528L470 517L509 524L548 513L587 513L626 522L665 528L704 508L743 514L783 514L822 521L861 526L900 530L900 601L861 601L822 601L783 601L743 601L704 601L665 601L626 601L587 601L548 601L509 601L470 601L430 601L391 601L352 601L313 601L274 601L235 601L196 601L157 601L117 601L78 601L39 601L0 601Z" fill="#101312"></path><path d="M0 536L39 527L78 542L117 523L157 532L196 527L235 530L274 526L313 537L352 541L391 540L430 519L470 543L509 530L548 539L587 523L626 519L665 538L704 520L743 516L783 532L822 534L861 528L900 537L900 601L861 601L822 601L783 601L743 601L704 601L665 601L626 601L587 601L548 601L509 601L470 601L430 601L391 601L352 601L313 601L274 601L235 601L196 601L157 601L117 601L78 601L39 601L0 601Z" fill="#101312"></path><path d="M0 539L39 542L78 525L117 524L157 539L196 543L235 525L274 535L313 537L352 546L391 535L430 535L470 546L509 524L548 536L587 533L626 545L665 527L704 536L743 532L783 540L822 525L861 531L900 543L900 601L861 601L822 601L783 601L743 601L704 601L665 601L626 601L587 601L548 601L509 601L470 601L430 601L391 601L352 601L313 601L274 601L235 601L196 601L157 601L117 601L78 601L39 601L0 601Z" fill="#101312"></path><path d="M0 547L39 542L78 548L117 542L157 551L196 549L235 533L274 546L313 536L352 551L391 554L430 547L470 540L509 537L548 547L587 546L626 533L665 552L704 538L743 537L783 550L822 539L861 546L900 539L900 601L861 601L822 601L783 601L743 601L704 601L665 601L626 601L587 601L548 601L509 601L470 601L430 601L391 601L352 601L313 601L274 601L235 601L196 601L157 601L117 601L78 601L39 601L0 601Z" fill="#101312"></path><path d="M0 544L39 542L78 547L117 559L157 548L196 554L235 559L274 542L313 547L352 541L391 553L430 541L470 552L509 544L548 543L587 542L626 558L665 550L704 544L743 544L783 558L822 544L861 558L900 556L900 601L861 601L822 601L783 601L743 601L704 601L665 601L626 601L587 601L548 601L509 601L470 601L430 601L391 601L352 601L313 601L274 601L235 601L196 601L157 601L117 601L78 601L39 601L0 601Z" fill="#101312"></path><path d="M0 563L39 556L78 561L117 555L157 557L196 552L235 556L274 559L313 563L352 559L391 560L430 556L470 562L509 555L548 564L587 554L626 554L665 550L704 557L743 557L783 561L822 552L861 559L900 558L900 601L861 601L822 601L783 601L743 601L704 601L665 601L626 601L587 601L548 601L509 601L470 601L430 601L391 601L352 601L313 601L274 601L235 601L196 601L157 601L117 601L78 601L39 601L0 601Z" fill="#101312"></path><path d="M0 567L39 560L78 560L117 569L157 562L196 570L235 558L274 571L313 568L352 563L391 560L430 567L470 560L509 558L548 567L587 563L626 571L665 566L704 564L743 570L783 561L822 562L861 565L900 563L900 601L861 601L822 601L783 601L743 601L704 601L665 601L626 601L587 601L548 601L509 601L470 601L430 601L391 601L352 601L313 601L274 601L235 601L196 601L157 601L117 601L78 601L39 601L0 601Z" fill="#101312"></path><path d="M0 572L39 572L78 570L117 568L157 567L196 569L235 576L274 573L313 571L352 569L391 576L430 572L470 572L509 574L548 574L587 576L626 569L665 570L704 570L743 572L783 576L822 568L861 575L900 573L900 601L861 601L822 601L783 601L743 601L704 601L665 601L626 601L587 601L548 601L509 601L470 601L430 601L391 601L352 601L313 601L274 601L235 601L196 601L157 601L117 601L78 601L39 601L0 601Z" fill="#101312"></path><path d="M0 577L39 576L78 574L117 580L157 581L196 580L235 580L274 579L313 575L352 575L391 578L430 581L470 578L509 576L548 582L587 577L626 577L665 580L704 575L743 580L783 577L822 581L861 579L900 579L900 601L861 601L822 601L783 601L743 601L704 601L665 601L626 601L587 601L548 601L509 601L470 601L430 601L391 601L352 601L313 601L274 601L235 601L196 601L157 601L117 601L78 601L39 601L0 601Z" fill="#101312"></path><path d="M0 586L39 586L78 586L117 586L157 585L196 586L235 584L274 587L313 587L352 584L391 588L430 583L470 585L509 584L548 582L587 586L626 582L665 588L704 586L743 586L783 587L822 583L861 584L900 584L900 601L861 601L822 601L783 601L743 601L704 601L665 601L626 601L587 601L548 601L509 601L470 601L430 601L391 601L352 601L313 601L274 601L235 601L196 601L157 601L117 601L78 601L39 601L0 601Z" fill="#101312"></path></svg>